<svg width="64" height="64" viewBox="0 0 64 64" fill="none" xmlns="http://www.w3.org/2000/svg"><circle cx="32" cy="32" r="30" fill="#fff" stroke="#C1F1D9" stroke-width="4"/><path d="M29.333 41.333h-6.666A2.666 2.666 0 0 1 20 38.667v-16A2.666 2.666 0 0 1 22.667 20h16a2.666 2.666 0 0 1 2.666 2.667v6.666" stroke="#16D26E" stroke-width="2" stroke-linecap="round" stroke-linejoin="round"/><path clip-rule="evenodd" d="M36.556 44.433l-3.161-10.098c-.334-1.066.757-2.02 1.769-1.548l9.428 4.401c1.117.521.93 2.165-.277 2.42l-3.882.821-1.44 4.05c-.414 1.162-2.068 1.13-2.437-.046z" stroke="#16D26E" stroke-width="2" stroke-linecap="round" stroke-linejoin="round"/></svg>