<svg width="65" height="64" viewBox="0 0 65 64" fill="none" xmlns="http://www.w3.org/2000/svg"><circle cx="32.5" cy="32" r="30" fill="#fff" stroke="#C1F1D9" stroke-width="4"/><path d="M29.955 26.879a3 3 0 1 1-4.243 4.242 3 3 0 0 1 4.243-4.242" stroke="#16D26E" stroke-width="2" stroke-linecap="round" stroke-linejoin="round"/><path clip-rule="evenodd" d="M19.167 40.667V23.388a2.722 2.722 0 0 1 2.721-2.721h21.279a2.666 2.666 0 0 1 2.666 2.666v17.334a2.666 2.666 0 0 1-2.666 2.666H21.833a2.666 2.666 0 0 1-2.666-2.666z" stroke="#16D26E" stroke-width="2" stroke-linecap="round" stroke-linejoin="round"/><path d="M36.5 28.667h5.333M39.7 34h-3.2M32.627 38a4.23 4.23 0 0 0-3.932-2.667h-1.723a4.23 4.23 0 0 0-2.876 1.128A4.225 4.225 0 0 0 23.04 38" stroke="#16D26E" stroke-width="2" stroke-linecap="round" stroke-linejoin="round"/></svg>