<svg width="65" height="64" viewBox="0 0 65 64" fill="none" xmlns="http://www.w3.org/2000/svg"><circle cx="32.5" cy="32" r="30" fill="#fff" stroke="#C1F1D9" stroke-width="4"/><path d="M19.167 41.333c0-2.933 2.4-5.333 5.333-5.333h5.333c2.934 0 5.334 2.4 5.334 5.333M30.5 24c1.867 1.867 1.867 4.8 0 6.533-1.867 1.734-4.8 1.867-6.533 0-1.734-1.866-1.867-4.666-.134-6.533 1.734-1.867 4.8-1.733 6.667 0M37.833 34.667h4c2.267 0 4 1.733 4 4M42.233 24.933c1.334 1.334 1.334 3.467 0 4.667-1.333 1.2-3.466 1.333-4.666 0-1.2-1.333-1.334-3.467 0-4.667 1.2-1.2 3.333-1.2 4.666 0" stroke="#16D26E" stroke-width="2" stroke-linecap="round" stroke-linejoin="round"/></svg>