<?xml version="1.0" encoding="utf-8"?>
<svg width="65" height="64" viewBox="0 0 65 64" style="enable-background:new 0 0 65 64;" fill="none" xmlns="http://www.w3.org/2000/svg">
<circle cx="32.5" cy="32" r="30" fill="white" stroke="#C1F1D9" stroke-width="4"/>
<path d="M19.1667 41.3333C19.1667 38.4 21.5667 36 24.5 36H29.8333C32.7667 36 35.1667 38.4 35.1667 41.3333" stroke="#16D26E" stroke-width="2" stroke-linecap="round" stroke-linejoin="round"/>
<path d="M30.5 24C32.3667 25.8667 32.3667 28.8 30.5 30.5333C28.6333 32.2667 25.7 32.4 23.9667 30.5333C22.2333 28.6667 22.1 25.8667 23.8333 24C25.5667 22.1333 28.6333 22.2667 30.5 24" stroke="#16D26E" stroke-width="2" stroke-linecap="round" stroke-linejoin="round"/>
<path d="M37.8333 34.6666H41.8333C44.1 34.6666 45.8333 36.4 45.8333 38.6666" stroke="#16D26E" stroke-width="2" stroke-linecap="round" stroke-linejoin="round"/>
<path d="M42.2333 24.9333C43.5667 26.2667 43.5667 28.4 42.2333 29.6C40.9 30.8 38.7667 30.9333 37.5667 29.6C36.3667 28.2667 36.2333 26.1333 37.5667 24.9333C38.7667 23.7333 40.9 23.7333 42.2333 24.9333" stroke="#16D26E" stroke-width="2" stroke-linecap="round" stroke-linejoin="round"/>
</svg>
