<?xml version="1.0" encoding="utf-8"?>
<svg width="65" height="64" viewBox="0 0 65 64" style="enable-background:new 0 0 65 64;" fill="none" xmlns="http://www.w3.org/2000/svg">
<circle cx="32.5" cy="32" r="30" fill="white" stroke="#C1F1D9" stroke-width="4"/>
<path d="M29.9547 26.8787C31.1262 28.0503 31.1262 29.9497 29.9547 31.1213C28.7831 32.2929 26.8836 32.2929 25.712 31.1213C24.5405 29.9497 24.5405 28.0503 25.712 26.8787C26.8836 25.7071 28.7831 25.7071 29.9547 26.8787" stroke="#16D26E" stroke-width="2" stroke-linecap="round" stroke-linejoin="round"/>
<path fill-rule="evenodd" clip-rule="evenodd" d="M19.1667 40.6666V23.388C19.1667 21.8853 20.3853 20.6666 21.888 20.6666H43.1667C44.64 20.6666 45.8333 21.86 45.8333 23.3333V40.6666C45.8333 42.14 44.64 43.3333 43.1667 43.3333H21.8333C20.36 43.3333 19.1667 42.14 19.1667 40.6666Z" stroke="#16D26E" stroke-width="2" stroke-linecap="round" stroke-linejoin="round"/>
<path d="M36.5 28.6667H41.8333" stroke="#16D26E" stroke-width="2" stroke-linecap="round" stroke-linejoin="round"/>
<path d="M39.7 33.9999H36.5" stroke="#16D26E" stroke-width="2" stroke-linecap="round" stroke-linejoin="round"/>
<path d="M32.6266 37.9999C32.3933 37.4146 32.0333 36.8893 31.5706 36.4613V36.4613C30.788 35.7359 29.7613 35.3333 28.6946 35.3333H26.972C25.9053 35.3333 24.8786 35.7359 24.096 36.4613V36.4613C23.6333 36.8893 23.2733 37.4146 23.04 37.9999" stroke="#16D26E" stroke-width="2" stroke-linecap="round" stroke-linejoin="round"/>
</svg>